<svg width="122" height="32" viewBox="0 0 122 32" fill="none" xmlns="http://www.w3.org/2000/svg">
<path d="M18.3227 21.6555H24.4922C24.3684 23.671 23.8113 25.4602 22.8208 27.0231C21.8442 28.5861 20.4755 29.8063 18.7147 30.6838C16.9678 31.5613 14.8631 32 12.4008 32C10.475 32 8.74867 31.671 7.22178 31.0129C5.69489 30.341 4.38809 29.3813 3.30139 28.1337C2.22844 26.886 1.40997 25.3779 0.84598 23.6093C0.281993 21.8406 0 19.8595 0 17.6658V15.5887C0 13.395 0.288871 11.4139 0.866614 9.64524C1.45811 7.8629 2.29721 6.3479 3.38392 5.10026C4.48438 3.85261 5.79806 2.89289 7.32495 2.22108C8.85184 1.54927 10.5576 1.21337 12.4421 1.21337C14.9457 1.21337 17.0572 1.66581 18.7766 2.57069C20.5099 3.47558 21.8511 4.72322 22.8002 6.31362C23.7631 7.90403 24.3408 9.7138 24.5334 11.7429H18.3433C18.2746 10.5364 18.0338 9.515 17.6212 8.67866C17.2085 7.82862 16.5826 7.19109 15.7435 6.76607C14.9181 6.32734 13.8177 6.10797 12.4421 6.10797C11.4104 6.10797 10.5094 6.29991 9.73909 6.6838C8.96877 7.06769 8.32225 7.65039 7.79953 8.43188C7.27681 9.21337 6.88477 10.2005 6.62341 11.3933C6.3758 12.5724 6.252 13.9572 6.252 15.5476V17.6658C6.252 19.2151 6.36893 20.5793 6.60277 21.7584C6.83662 22.9237 7.19427 23.9109 7.67572 24.7198C8.17093 25.515 8.8037 26.1183 9.57402 26.5296C10.3581 26.9272 11.3004 27.126 12.4008 27.126C13.6939 27.126 14.7599 26.9203 15.5991 26.509C16.4382 26.0977 17.0778 25.4876 17.518 24.6787C17.9719 23.8698 18.2402 22.862 18.3227 21.6555Z" fill="#D6000D"/>
<path d="M27.2364 20.6889V20.2571C27.2364 18.6255 27.4703 17.1243 27.938 15.7532C28.4057 14.3685 29.0866 13.1688 29.9807 12.1542C30.8748 11.1397 31.9753 10.3513 33.2821 9.7892C34.5889 9.21337 36.0883 8.92545 37.7802 8.92545C39.4722 8.92545 40.9785 9.21337 42.299 9.7892C43.6196 10.3513 44.7269 11.1397 45.621 12.1542C46.5289 13.1688 47.2167 14.3685 47.6844 15.7532C48.1521 17.1243 48.3859 18.6255 48.3859 20.2571V20.6889C48.3859 22.3068 48.1521 23.8081 47.6844 25.1928C47.2167 26.5638 46.5289 27.7635 45.621 28.7918C44.7269 29.8063 43.6264 30.5947 42.3197 31.1568C41.0129 31.7189 39.5135 32 37.8215 32C36.1296 32 34.6233 31.7189 33.3027 31.1568C31.9959 30.5947 30.8886 29.8063 29.9807 28.7918C29.0866 27.7635 28.4057 26.5638 27.938 25.1928C27.4703 23.8081 27.2364 22.3068 27.2364 20.6889ZM33.1789 20.2571V20.6889C33.1789 21.6213 33.2615 22.4919 33.4265 23.3008C33.5916 24.1097 33.853 24.8226 34.2106 25.4396C34.582 26.0428 35.0635 26.5159 35.655 26.8586C36.2465 27.2014 36.9687 27.3728 37.8215 27.3728C38.6469 27.3728 39.3553 27.2014 39.9468 26.8586C40.5383 26.5159 41.0129 26.0428 41.3705 25.4396C41.7282 24.8226 41.9895 24.1097 42.1546 23.3008C42.3334 22.4919 42.4228 21.6213 42.4228 20.6889V20.2571C42.4228 19.3522 42.3334 18.5021 42.1546 17.7069C41.9895 16.898 41.7213 16.1851 41.3499 15.5681C40.9922 14.9374 40.5176 14.4439 39.9261 14.0874C39.3346 13.7309 38.6193 13.5527 37.7802 13.5527C36.9411 13.5527 36.2258 13.7309 35.6343 14.0874C35.0566 14.4439 34.582 14.9374 34.2106 15.5681C33.853 16.1851 33.5916 16.898 33.4265 17.7069C33.2615 18.5021 33.1789 19.3522 33.1789 20.2571Z" fill="#D6000D"/>
<path d="M65.223 26.7352V0H71.2068V31.5887H65.8214L65.223 26.7352ZM51.1096 20.7301V20.2982C51.1096 18.5981 51.3022 17.0557 51.6873 15.671C52.0725 14.2725 52.6365 13.0728 53.3793 12.072C54.1221 11.0711 55.0369 10.2965 56.1236 9.74807C57.2103 9.19966 58.4483 8.92545 59.8376 8.92545C61.1444 8.92545 62.2862 9.19966 63.2628 9.74807C64.2532 10.2965 65.0923 11.078 65.7801 12.0925C66.4817 13.0934 67.0457 14.2793 67.4721 15.6504C67.8985 17.0077 68.208 18.4953 68.4006 20.1131V21.0591C68.208 22.6084 67.8985 24.048 67.4721 25.3779C67.0457 26.7078 66.4817 27.8732 65.7801 28.874C65.0923 29.8612 64.2532 30.629 63.2628 31.1774C62.2724 31.7258 61.1169 32 59.7964 32C58.407 32 57.169 31.7189 56.0823 31.1568C55.0094 30.5947 54.1015 29.8063 53.3587 28.7918C52.6296 27.7772 52.0725 26.5844 51.6873 25.2134C51.3022 23.8423 51.1096 22.3479 51.1096 20.7301ZM57.0521 20.2982V20.7301C57.0521 21.6487 57.1209 22.5056 57.2584 23.3008C57.4097 24.096 57.6505 24.8021 57.9806 25.419C58.3245 26.0223 58.7647 26.4953 59.3012 26.838C59.8514 27.1671 60.5185 27.3316 61.3026 27.3316C62.3206 27.3316 63.1597 27.1054 63.8199 26.653C64.4802 26.1868 64.9823 25.5493 65.3262 24.7404C65.6838 23.9314 65.8902 22.9991 65.9452 21.9434V19.2494C65.9039 18.3856 65.7801 17.611 65.5738 16.9254C65.3812 16.2262 65.0923 15.6298 64.7072 15.1362C64.3358 14.6427 63.8681 14.2588 63.3041 13.9846C62.7539 13.7104 62.1005 13.5733 61.3439 13.5733C60.5736 13.5733 59.9133 13.7515 59.3631 14.108C58.8128 14.4507 58.3658 14.9237 58.0219 15.527C57.6917 16.1302 57.4441 16.8432 57.2791 17.6658C57.1277 18.4747 57.0521 19.3522 57.0521 20.2982Z" fill="#D6000D"/>
<path d="M87.8994 26.5707V16.6581C87.8994 15.9452 87.7825 15.335 87.5486 14.8278C87.3148 14.3068 86.9503 13.9023 86.4551 13.6144C85.9736 13.3265 85.3477 13.1825 84.5774 13.1825C83.9171 13.1825 83.3463 13.2991 82.8648 13.5321C82.3834 13.7515 82.0119 14.0737 81.7506 14.4987C81.4892 14.91 81.3585 15.3967 81.3585 15.9589H75.4161C75.4161 15.0129 75.6361 14.1148 76.0763 13.2648C76.5165 12.4147 77.1562 11.6675 77.9953 11.0231C78.8344 10.365 79.8317 9.8509 80.9871 9.48072C82.1564 9.11054 83.4632 8.92545 84.9075 8.92545C86.6408 8.92545 88.1814 9.21337 89.5295 9.7892C90.8775 10.365 91.9367 11.2288 92.7071 12.3805C93.4911 13.5321 93.8832 14.9717 93.8832 16.6992V26.2211C93.8832 27.4413 93.9588 28.4422 94.1102 29.2237C94.2615 29.9914 94.4816 30.6632 94.7704 31.2391V31.5887H88.766C88.4772 30.9854 88.2571 30.2314 88.1058 29.3265C87.9682 28.4079 87.8994 27.4893 87.8994 26.5707ZM88.6835 18.036L88.7248 21.3882H85.4027C84.6187 21.3882 83.9378 21.4773 83.36 21.6555C82.7823 21.8338 82.3077 22.0874 81.9363 22.4165C81.5649 22.7318 81.2898 23.102 81.1109 23.527C80.9459 23.952 80.8633 24.4182 80.8633 24.9254C80.8633 25.4327 80.9803 25.892 81.2141 26.3033C81.448 26.7009 81.785 27.0163 82.2252 27.2494C82.6653 27.4687 83.1812 27.5784 83.7727 27.5784C84.6668 27.5784 85.444 27.4002 86.1043 27.0437C86.7646 26.6872 87.2735 26.2485 87.6312 25.7275C88.0026 25.2065 88.1952 24.7129 88.2089 24.2468L89.7771 26.7558C89.557 27.3179 89.2544 27.9006 88.8692 28.5039C88.4978 29.1071 88.0232 29.6761 87.4455 30.2108C86.8677 30.7318 86.1731 31.1637 85.3615 31.5064C84.5499 31.8355 83.587 32 82.4728 32C81.0559 32 79.7698 31.7189 78.6143 31.1568C77.4725 30.581 76.5647 29.7926 75.8906 28.7918C75.2303 27.7772 74.9002 26.6255 74.9002 25.3368C74.9002 24.1714 75.1203 23.1362 75.5605 22.2314C76.0007 21.3265 76.6472 20.5656 77.5001 19.9486C78.3667 19.3179 79.4465 18.8449 80.7395 18.5296C82.0326 18.2005 83.532 18.036 85.2377 18.036H88.6835Z" fill="#D6000D"/>
<path d="M104.406 14.1902V31.5887H98.4639V9.33676H104.056L104.406 14.1902ZM111.133 9.1928L111.03 14.6838C110.741 14.6427 110.39 14.6084 109.977 14.581C109.579 14.5398 109.214 14.5193 108.884 14.5193C108.045 14.5193 107.316 14.629 106.697 14.8483C106.091 15.054 105.582 15.3625 105.17 15.7738C104.771 16.1851 104.468 16.6855 104.262 17.2751C104.069 17.8646 103.959 18.5364 103.932 19.2905L102.735 18.9203C102.735 17.4807 102.879 16.1577 103.168 14.9512C103.457 13.7309 103.877 12.6684 104.427 11.7635C104.991 10.8586 105.679 10.1594 106.49 9.66581C107.302 9.17224 108.23 8.92545 109.276 8.92545C109.606 8.92545 109.943 8.95287 110.287 9.00771C110.631 9.04884 110.913 9.11054 111.133 9.1928Z" fill="#D6000D"/>
<path d="M115.273 28.7301C115.273 27.8526 115.576 27.1191 116.181 26.5296C116.8 25.94 117.619 25.6453 118.637 25.6453C119.655 25.6453 120.466 25.94 121.071 26.5296C121.69 27.1191 122 27.8526 122 28.7301C122 29.6076 121.69 30.3411 121.071 30.9306C120.466 31.5202 119.655 31.8149 118.637 31.8149C117.619 31.8149 116.8 31.5202 116.181 30.9306C115.576 30.3411 115.273 29.6076 115.273 28.7301Z" fill="black"/>
</svg>
