<svg width="122" height="32" fill="none" xmlns="http://www.w3.org/2000/svg"><path d="M18.323 21.655h6.17c-.125 2.016-.682 3.805-1.672 5.368-.977 1.563-2.346 2.783-4.106 3.66C16.968 31.562 14.863 32 12.4 32c-1.926 0-3.652-.329-5.18-.987a11.02 11.02 0 0 1-3.92-2.88C2.228 26.887 1.41 25.379.846 23.61.282 21.841 0 19.86 0 17.666v-2.077c0-2.194.289-4.175.867-5.944.591-1.782 1.43-3.297 2.517-4.545a11.216 11.216 0 0 1 3.941-2.879c1.527-.672 3.233-1.008 5.117-1.008 2.504 0 4.615.453 6.335 1.358 1.733.905 3.074 2.152 4.023 3.743.963 1.59 1.54 3.4 1.733 5.429h-6.19c-.068-1.207-.31-2.228-.722-3.064a4.09 4.09 0 0 0-1.877-1.913c-.826-.439-1.926-.658-3.302-.658-1.032 0-1.933.192-2.703.576-.77.384-1.417.966-1.94 1.748-.522.781-.914 1.768-1.176 2.961-.247 1.18-.371 2.564-.371 4.155v2.118c0 1.55.117 2.913.35 4.092.235 1.166.592 2.153 1.074 2.962.495.795 1.128 1.398 1.898 1.81.784.397 1.726.596 2.827.596 1.293 0 2.359-.206 3.198-.617a4.269 4.269 0 0 0 1.919-1.83c.454-.81.722-1.817.805-3.023ZM27.236 20.689v-.432c0-1.632.234-3.133.702-4.504.468-1.385 1.149-2.584 2.043-3.599.894-1.014 1.994-1.803 3.301-2.365 1.307-.576 2.806-.864 4.498-.864 1.692 0 3.198.288 4.519.864 1.32.562 2.428 1.35 3.322 2.365.908 1.015 1.596 2.214 2.063 3.6.468 1.37.702 2.871.702 4.503v.432c0 1.618-.234 3.12-.702 4.504-.467 1.37-1.155 2.57-2.063 3.599-.894 1.014-1.995 1.803-3.301 2.365-1.307.562-2.806.843-4.498.843-1.692 0-3.199-.281-4.52-.843a9.351 9.351 0 0 1-3.321-2.365c-.894-1.029-1.575-2.228-2.043-3.6-.468-1.384-.702-2.885-.702-4.503Zm5.943-.432v.432c0 .932.082 1.803.247 2.612.166.809.427 1.522.785 2.139a4.082 4.082 0 0 0 1.444 1.419c.591.342 1.314.514 2.166.514.826 0 1.534-.172 2.126-.514a3.918 3.918 0 0 0 1.423-1.42c.358-.616.62-1.33.785-2.138.178-.81.268-1.68.268-2.612v-.432c0-.905-.09-1.755-.268-2.55-.166-.809-.434-1.522-.805-2.139a3.99 3.99 0 0 0-1.424-1.48c-.591-.357-1.307-.535-2.146-.535s-1.554.178-2.146.534a4.214 4.214 0 0 0-1.423 1.481c-.358.617-.62 1.33-.785 2.139a12.54 12.54 0 0 0-.247 2.55ZM65.223 26.735V0h5.984v31.589H65.82l-.598-4.854ZM51.11 20.73v-.432c0-1.7.192-3.242.577-4.627.386-1.398.95-2.598 1.692-3.599a7.701 7.701 0 0 1 2.745-2.324c1.086-.548 2.324-.823 3.714-.823 1.306 0 2.448.275 3.425.823.99.549 1.83 1.33 2.517 2.345.702 1 1.266 2.186 1.692 3.557.427 1.358.736 2.845.929 4.463v.946a23.713 23.713 0 0 1-.929 4.319c-.426 1.33-.99 2.495-1.692 3.496-.688.987-1.527 1.755-2.517 2.303-.99.549-2.146.823-3.467.823-1.389 0-2.627-.281-3.714-.843a7.876 7.876 0 0 1-2.723-2.365c-.73-1.015-1.287-2.208-1.672-3.579-.385-1.37-.577-2.865-.577-4.483Zm5.942-.432v.432c0 .919.069 1.776.206 2.57.152.796.392 1.502.723 2.119a3.99 3.99 0 0 0 1.32 1.419c.55.33 1.218.494 2.002.494 1.018 0 1.857-.227 2.517-.679.66-.466 1.162-1.104 1.506-1.913.358-.809.564-1.74.62-2.797V19.25c-.042-.863-.166-1.638-.372-2.324-.193-.699-.482-1.295-.867-1.789a3.82 3.82 0 0 0-1.403-1.151c-.55-.275-1.204-.412-1.96-.412-.77 0-1.43.178-1.98.535-.551.343-.998.816-1.342 1.419-.33.603-.578 1.316-.743 2.139a14.323 14.323 0 0 0-.227 2.632ZM87.9 26.57v-9.912c0-.713-.118-1.323-.351-1.83a2.605 2.605 0 0 0-1.094-1.214c-.481-.288-1.107-.432-1.878-.432-.66 0-1.23.117-1.712.35-.482.22-.853.542-1.114.967-.262.411-.392.898-.392 1.46h-5.943c0-.946.22-1.844.66-2.694.44-.85 1.08-1.598 1.92-2.242.838-.658 1.836-1.172 2.991-1.542 1.17-.37 2.476-.556 3.92-.556 1.734 0 3.274.288 4.623.864 1.347.576 2.407 1.44 3.177 2.591.784 1.152 1.176 2.592 1.176 4.32v9.521c0 1.22.076 2.221.227 3.003.151.767.372 1.44.66 2.015v.35h-6.004c-.289-.604-.509-1.358-.66-2.262a18.578 18.578 0 0 1-.207-2.756Zm.783-8.534.042 3.352h-3.322c-.784 0-1.465.09-2.043.267-.578.179-1.052.432-1.424.761a2.942 2.942 0 0 0-.825 1.111 3.833 3.833 0 0 0-.248 1.398c0 .508.117.967.351 1.378.234.398.571.713 1.011.946.44.22.956.33 1.548.33.894 0 1.671-.179 2.331-.535.66-.357 1.17-.796 1.527-1.317.372-.52.564-1.014.578-1.48l1.568 2.509c-.22.562-.523 1.145-.908 1.748a8.172 8.172 0 0 1-1.424 1.707c-.577.52-1.272.953-2.083 1.295-.812.33-1.775.494-2.89.494-1.416 0-2.702-.281-3.858-.843-1.142-.576-2.05-1.364-2.723-2.365-.66-1.015-.99-2.167-.99-3.455 0-1.166.22-2.2.66-3.106a6.064 6.064 0 0 1 1.94-2.282c.866-.631 1.945-1.104 3.239-1.42 1.293-.328 2.792-.493 4.498-.493h3.445ZM104.406 14.19V31.59h-5.942V9.337h5.592l.35 4.853Zm6.727-4.997-.103 5.49c-.289-.04-.64-.075-1.053-.102a10.692 10.692 0 0 0-1.093-.062c-.839 0-1.568.11-2.187.33a3.895 3.895 0 0 0-1.527.925 4.032 4.032 0 0 0-.908 1.501c-.193.59-.303 1.261-.33 2.016l-1.197-.37c0-1.44.144-2.763.433-3.97.289-1.22.709-2.283 1.259-3.188.564-.904 1.252-1.604 2.063-2.097.812-.494 1.74-.74 2.786-.74.33 0 .667.027 1.011.082.344.04.626.103.846.185Z" fill="#D6000D"/><path d="M115.273 28.73c0-.877.303-1.61.908-2.2.619-.59 1.438-.885 2.456-.885s1.829.295 2.434.885c.619.59.929 1.323.929 2.2 0 .878-.31 1.611-.929 2.2-.605.59-1.416.885-2.434.885-1.018 0-1.837-.295-2.456-.884-.605-.59-.908-1.323-.908-2.2Z" fill="#000"/></svg>